<svg width="385" height="125" viewBox="0 0 385 125" fill="none" xmlns="http://www.w3.org/2000/svg">
<g clip-path="url(#clip0_1_83)">
<path d="M243.909 60.4807H214.943V71.7671H222.707V116.563H236.085V71.7671H243.909V60.4807ZM199.004 95.5795L200.465 69.4779H200.675L202.336 95.5795H199.014H199.004ZM203.927 116.553H217.574L210.37 60.4707H191.249L184.045 116.553H197.623L198.173 106.586H203.236L203.927 116.553ZM168.586 116.553H181.964V60.4707H168.586V116.553ZM149.115 117.662C159.791 117.662 164.774 112.474 164.774 100.218V60.4807H151.407V103.127C151.407 105.556 150.716 106.446 149.255 106.446C147.734 106.446 147.034 105.616 147.034 103.257V60.4707H133.596V100.488C133.596 113.094 138.309 117.662 149.115 117.662ZM114.265 106.516C112.674 106.516 111.774 105.616 111.774 103.057V74.1164C111.774 71.5572 112.604 70.5175 114.205 70.5175C115.806 70.5175 116.837 71.4172 116.837 73.9764V102.917C116.837 105.476 116.006 106.516 114.275 106.516M123.14 125L132.916 118.082L127.783 110.605C129.514 107.836 130.274 104.377 130.274 99.5282V77.2354C130.274 64.2195 124.801 59.3711 114.475 59.3711C104.15 59.3711 98.2662 64.7694 98.2662 77.5053V99.7982C98.2662 112.674 103.669 117.662 113.995 117.662C115.316 117.662 116.977 117.243 117.947 116.973L123.14 125ZM78.1747 103.467V93.8401L79.2853 94.3999C81.5066 95.3696 82.267 96.6892 82.267 98.9684V104.227C82.267 105.886 81.5766 106.576 80.3959 106.576C78.9451 106.576 78.1747 105.746 78.1747 103.457M80.3959 117.652C89.6812 117.652 95.7747 113.364 95.7747 103.047V97.5789C95.7747 91.3509 92.4528 87.812 86.7696 85.1828L85.5289 84.563L95.7147 82.0038L95.0943 73.0767C94.2639 63.7297 89.9714 59.3711 80.546 59.3711C71.1206 59.3711 65.4374 63.5198 65.4374 73.3566V78.6149C65.4374 84.9829 68.8994 89.6914 74.7227 92.1806L75.3431 92.4605L65.2273 94.5398L65.3674 103.747C65.5775 113.374 70.7004 117.662 80.4059 117.662M81.7967 82.6337C79.7156 81.664 78.8851 80.2744 78.8851 77.9252V72.5969C78.8851 71.0774 79.4354 70.3176 80.6161 70.3176C81.9968 70.3176 82.4871 71.2873 82.5572 73.3666L82.6973 83.1235L81.7967 82.6436V82.6337ZM46.1764 95.5795L47.6272 69.4779H47.8373L49.4983 95.5795H46.1764ZM51.0992 116.553H64.747L57.5429 60.4707H38.422L31.2178 116.553H44.7956L45.3559 106.586H50.4088L51.0992 116.553ZM13.4077 92.8804H14.2381C16.3193 92.8804 17.1498 93.5701 17.1498 95.5095V103.127C17.1498 104.996 16.4594 105.756 14.9285 105.756H13.4077V92.8804ZM13.4077 71.2773H14.7985C16.4594 71.2773 16.8796 72.107 16.8796 73.9764V79.7946C16.8796 81.8039 16.3293 82.7036 14.3882 82.7036H13.4177V71.2773H13.4077ZM0 60.4807V116.563H15.1787C24.8142 116.563 30.6975 112.544 30.6975 102.717V97.5289C30.6975 91.5108 28.4763 87.5621 21.4122 86.9323V86.7923C28.066 85.6827 30.2173 81.8039 30.2173 75.5059V72.3869C30.2173 64.3595 25.7847 60.4807 16.8396 60.4807H0Z" fill="white"/>
<path d="M310.638 45.9053V1.10964H297.26V57.1917H321.584V45.9053H310.638ZM283.402 46.1152V33.9291H292.967V22.8527H283.402V12.1861H294.078V1.10964H270.034V57.1917H294.148V46.1152H283.412H283.402ZM253.125 1.10964V22.7827H248.272V1.10964H234.894V57.1917H248.272V34.2091H253.125V57.1917H266.502V1.10964H253.125ZM216.474 58.2913C226.039 58.2913 231.092 53.5829 231.582 42.3664L231.933 32.5996L219.255 29.7605L218.975 43.606C218.905 46.0952 218.215 47.1349 216.824 47.1349C215.433 47.1349 214.673 46.3052 214.673 43.886V14.6753C214.673 12.1861 215.223 11.1464 216.684 11.1464C218.145 11.1464 218.765 12.1161 218.905 14.7453L219.185 26.6515L231.792 24.5022L231.382 15.505C230.762 4.84845 226.249 0 216.694 0C206.438 0 201.175 5.25832 201.175 18.1442V40.4371C201.175 53.5928 206.308 58.3013 216.494 58.3013M184.345 57.1917H197.723V1.10964H184.345V57.1917ZM180.673 1.10964H162.523L159.541 39.0475H159.331L156.349 1.10964H138.059V57.1917H150.046V12.1861H150.186L154.338 57.1917H164.314L168.336 12.1861H168.546V57.1917H180.673V1.10964ZM120.389 39.8073H134.807V28.5909H120.389V39.8073ZM104.56 1.10964V31.4299H104.42L97.6258 1.10964H84.9486V57.1917H97.4957V27.0014H97.6358L104.43 57.1917H117.107V1.10964H104.56ZM64.3668 36.2084L65.8276 10.1068H66.0377L67.6987 36.2084H64.3768H64.3668ZM69.2896 57.1817H82.9374L75.7333 1.10964H56.6124L49.4082 57.1917H62.986L63.5363 47.2249H68.5992L69.2896 57.1917V57.1817ZM37.2813 46.1052V33.9191H46.8468V22.8427H37.2813V12.1761H47.9574V1.10964H23.9137V57.1917H48.0275V46.1152H37.2813V46.1052ZM7.48428 58.2214C17.2599 58.2214 20.2316 52.0633 20.2316 41.6067V1.10964H6.79388V42.3065C6.79388 45.5554 5.47313 46.5951 3.05174 46.5951C2.01115 46.5951 1.04059 46.3852 0 46.1152V56.9118C2.6315 57.8815 4.99285 58.2314 7.48428 58.2314" fill="white"/>
<path d="M240.728 87.6021H248.272V79.0049H240.728V87.6021ZM240.728 107.316H248.272V98.7186H240.728V107.316Z" fill="white"/>
<path d="M368.901 111.184V105.276H373.533V99.908H368.901V94.7397H374.074V89.3714H362.427V116.543H374.114V111.174H368.911L368.901 111.184ZM352.181 94.6797H352.782C353.722 94.6797 353.952 95.1496 353.952 96.1592V99.3782C353.952 100.448 353.652 101.058 352.611 101.058H352.171V94.6797H352.181ZM345.708 89.3814V116.553H352.181V106.326H352.752C353.622 106.326 353.922 106.796 353.992 108.165L354.122 116.553H360.836L360.496 108.235C360.326 104.816 359.225 103.377 355.863 103.207V103.137C359.125 102.567 360.496 100.658 360.496 97.1689V95.6594C360.496 91.1308 358.075 89.3914 353.652 89.3914H345.698L345.708 89.3814ZM336.002 117.083C341.165 117.083 343.586 114.563 343.586 108.635V89.3814H337.103V110.045C337.103 111.214 336.762 111.654 336.062 111.654C335.322 111.654 334.991 111.254 334.991 110.115V89.3814H328.478V108.765C328.478 114.873 330.759 117.083 336.002 117.083ZM318.272 110.205V105.546L318.812 105.816C319.883 106.286 320.253 106.926 320.253 108.035V110.585C320.253 111.394 319.913 111.724 319.342 111.724C318.642 111.724 318.272 111.324 318.272 110.215M319.342 117.093C323.845 117.093 326.797 115.013 326.797 110.015V107.366C326.797 104.347 325.186 102.637 322.434 101.358L321.834 101.058L326.767 99.8181L326.467 95.4894C326.066 90.9609 323.985 88.8516 319.413 88.8516C314.84 88.8516 312.098 90.8609 312.098 95.6294V98.1786C312.098 101.268 313.779 103.547 316.601 104.756L316.901 104.886L311.998 105.896L312.068 110.355C312.168 115.013 314.65 117.093 319.353 117.093M320.023 100.118C319.012 99.6481 318.612 98.9783 318.612 97.8387V95.2595C318.612 94.5198 318.882 94.1499 319.453 94.1499C320.123 94.1499 320.353 94.6197 320.393 95.6294L320.463 100.358L320.023 100.128V100.118ZM302.433 106.386L303.133 93.74H303.233L304.034 106.386H302.423H302.433ZM304.814 116.553H311.428L307.936 89.3814H298.671L295.179 116.553H301.762L302.033 111.724H304.484L304.814 116.553ZM288.975 111.184V105.276H293.608V99.908H288.975V94.7397H294.148V89.3714H282.501V116.543H294.188V111.174H288.985L288.975 111.184ZM275.718 111.084V89.3814H269.234V116.553H281.021V111.084H275.718ZM261.379 101.188C261.379 102.257 261.049 102.657 260.209 102.657H259.568V94.7397H260.239C261.109 94.7397 261.379 95.1096 261.379 96.1492V101.178V101.188ZM260.939 89.3814H253.085V116.553H259.558V108.035H260.129C264.861 108.035 267.913 105.756 267.913 100.558V96.3992C267.913 91.5407 265.662 89.3914 260.929 89.3914" fill="#ECD517"/>
<path d="M305.284 81.514H305.354L305.555 87.622H311.498V71.6272H306.935L311.398 69.6478L311.198 67.1686C310.627 62.0002 308.576 59.9209 303.944 59.9209C298.771 59.9209 296.159 62.3701 296.159 68.5381V80.5143C296.159 85.6427 297.17 88.0319 300.692 88.0319C304.214 88.0319 305.024 85.9226 305.294 81.524M303.824 71.6272V76.9555H305.094V79.0048C305.094 81.554 304.594 82.7936 303.684 82.7936C303.083 82.7936 302.713 82.4637 302.713 81.1841V67.0286C302.713 65.819 303.083 65.2892 303.824 65.2892C304.564 65.2892 304.934 65.6891 305.034 67.0686L305.264 71.6272H303.824ZM288.115 60.4607V75.156H288.045L284.753 60.4607H278.609V87.632H284.683V73.0067H284.753L288.045 87.632H294.188V60.4607H288.115ZM270.024 87.632H276.498V60.4607H270.024V87.632ZM265.632 73.4066L268.724 60.4607H261.94L259.658 72.9367H259.588V60.4607H253.105V87.632H259.588V74.4163H259.658L261.91 87.632H268.824L265.632 73.4066Z" fill="#ECD517"/>
<path d="M382.519 105.216C382.118 105.556 381.468 105.706 380.407 105.706C379.437 105.706 378.716 105.276 378.376 105.026C377.526 104.387 377.236 103.587 377.136 103.027C376.765 100.848 378.206 99.9381 378.847 99.6382C379.187 99.4782 379.647 99.4283 380.087 99.4283C380.678 99.4283 381.248 99.5182 381.488 99.5582C382.338 99.6782 383.689 100.358 383.999 101.298C384.38 102.457 383.729 104.177 382.519 105.216ZM383.869 99.6082C382.839 98.8584 381.268 98.5186 380.237 98.5186C379.117 98.5186 377.606 98.9884 376.915 100.018C376.235 101.028 376.135 102.547 376.275 103.267C376.395 103.837 376.805 104.976 377.606 105.696C378.276 106.266 378.806 106.446 379.257 106.566C379.527 106.636 380.087 106.706 380.718 106.706C381.498 106.706 382.389 106.596 382.949 106.236C383.919 105.626 384.49 104.747 384.84 103.307C385.23 101.728 384.86 100.348 383.859 99.6182" fill="white"/>
<path d="M381.158 103.267H381.128C380.858 103.277 380.057 103.307 379.687 103.047C379.517 102.927 379.377 102.757 379.417 102.377C379.467 101.967 379.577 101.697 379.747 101.557C379.887 101.447 380.087 101.407 380.357 101.447C380.678 101.487 380.928 101.567 381.088 101.617C381.198 101.657 381.278 101.677 381.338 101.677C381.488 101.677 381.658 101.487 381.718 101.307C381.788 101.098 381.718 100.898 381.548 100.768C381.148 100.468 380.147 100.288 379.597 100.498C379.167 100.668 378.746 101.337 378.626 101.867C378.506 102.407 378.396 103.377 379.027 103.867C379.237 104.027 379.767 104.326 380.447 104.376C380.577 104.386 380.708 104.396 380.828 104.396C381.228 104.396 381.518 104.336 381.648 104.256C381.778 104.177 381.848 103.947 381.868 103.767C381.878 103.657 381.878 103.457 381.768 103.347C381.668 103.257 381.468 103.257 381.168 103.267" fill="white"/>
</g>
<defs>
<clipPath id="clip0_1_83">
<rect width="385" height="125" fill="white"/>
</clipPath>
</defs>
</svg>
