<svg width="521" height="575" viewBox="0 0 521 575" fill="none" xmlns="http://www.w3.org/2000/svg">
<g clip-path="url(#clip0_74_108)">
<path d="M457.567 551.217V527.434H476.221V505.815H457.567V485.002H478.385V463.383H431.493V572.819H478.522V551.2H457.584L457.567 551.217ZM391.626 484.745H394.065C397.844 484.745 398.789 486.634 398.789 490.686V503.651C398.789 507.978 397.569 510.399 393.378 510.399H391.626V484.727V484.745ZM365.552 463.4V572.836H391.626V531.624H393.928C397.449 531.624 398.651 533.513 398.926 539.059L399.476 572.836H426.512L425.155 539.334C424.485 525.562 420.019 519.741 406.501 519.071V518.796C419.607 516.495 425.155 508.802 425.155 494.756V488.677C425.155 470.44 415.433 463.417 397.586 463.417H365.552V463.4ZM327.849 575C348.667 575 358.389 564.869 358.389 540.948V463.4H332.315V546.615C332.315 551.337 330.958 553.106 328.124 553.106C325.29 553.106 323.796 551.492 323.796 546.89V463.4H297.584V541.48C297.584 566.071 306.774 574.983 327.849 574.983M257.855 547.285V528.499L260.019 529.58C264.348 531.469 265.825 534.045 265.825 538.493V548.761C265.825 552.007 264.468 553.346 262.183 553.346C259.349 553.346 257.855 551.732 257.855 547.267M262.183 574.966C280.287 574.966 292.191 566.586 292.191 546.46V535.779C292.191 523.622 285.698 516.736 274.619 511.601L272.18 510.382L292.053 505.385L290.834 487.956C289.219 469.719 280.837 461.202 262.458 461.202C244.079 461.202 233 469.307 233 488.488V498.757C233 511.189 239.751 520.376 251.104 525.236L252.324 525.768L232.588 529.821L232.863 547.783C233.275 566.569 243.272 574.931 262.183 574.931M264.88 506.57C260.826 504.681 259.212 501.968 259.212 497.383V486.977C259.212 484.006 260.294 482.512 262.596 482.512C265.292 482.512 266.237 484.401 266.374 488.454L266.649 507.497L264.897 506.553L264.88 506.57ZM195.418 531.83L198.252 480.898H198.664L201.911 531.83H195.418ZM205.02 572.768H231.643L217.593 463.331H180.303L166.252 572.768H192.738L193.821 553.312H203.68L205.037 572.768H205.02ZM142.583 551.148V527.365H161.237V505.746H142.583V484.934H163.401V463.314H116.509V572.75H163.538V551.131H142.6L142.583 551.148ZM90.4175 550.736V463.331H64.3263V572.768H111.768V550.736H90.4175ZM33.3913 510.88C33.3913 515.208 32.0343 516.822 28.6677 516.822H26.1084V484.934H28.8051C32.3263 484.934 33.3913 486.427 33.3913 490.617V510.88ZM31.6393 463.331H0V572.768H26.074V538.458H28.3757C47.4245 538.458 59.723 529.271 59.723 508.339V491.579C59.723 471.986 50.6709 463.348 31.6221 463.348" fill="#E9D83B"/>
<path d="M206.754 432.388H207.029L207.837 456.978H231.746V392.532H213.367L231.334 384.564L230.527 374.57C228.225 353.758 219.98 345.395 201.344 345.395C180.526 345.395 169.997 355.252 169.997 380.116V428.352C169.997 449.027 174.05 458.609 188.238 458.609C202.426 458.609 205.672 450.092 206.754 432.405M200.811 392.549V414.031H205.947V422.273C205.947 432.542 203.92 437.539 200.279 437.539C197.84 437.539 196.363 436.183 196.363 431.048V374.038C196.363 369.178 197.857 367.014 200.829 367.014C203.8 367.014 205.294 368.646 205.69 374.175L206.634 392.549H200.829H200.811ZM138.924 347.559V406.733H138.649L125.406 347.559H100.672V456.995H125.131V398.095H125.406L138.649 456.995H163.384V347.559H138.924ZM67.1604 456.995H93.2345V347.559H67.1604V456.995ZM50.4133 399.71L62.8491 347.559H35.5555L26.3661 397.821H26.0912V347.559H0V456.995H26.074V403.762H26.3489L35.4009 456.995H63.2442L50.4133 399.71Z" fill="#E9D83B"/>
<path d="M511.02 527.176C509.423 528.533 506.795 529.151 502.535 529.151C498.636 529.151 495.733 527.417 494.359 526.404C490.924 523.828 489.756 520.599 489.378 518.35C487.884 509.575 493.689 505.883 496.266 504.716C497.64 504.08 499.478 503.891 501.264 503.891C503.634 503.891 505.936 504.252 506.898 504.424C510.333 504.922 515.761 507.635 516.998 511.447C518.509 516.135 515.881 523.055 511.02 527.211M516.465 504.63C512.309 501.607 505.988 500.234 501.865 500.234C497.365 500.234 491.25 502.123 488.468 506.261C485.737 510.331 485.324 516.461 485.908 519.329C486.372 521.613 488.038 526.232 491.285 529.1C493.964 531.401 496.111 532.105 497.915 532.585C499.014 532.877 501.264 533.169 503.789 533.169C506.932 533.169 510.522 532.723 512.79 531.298C516.706 528.825 518.99 525.287 520.399 519.483C521.962 513.113 520.485 507.549 516.448 504.612" fill="#E9D83B"/>
<path d="M505.575 519.312H505.455C504.39 519.363 501.127 519.483 499.667 518.419C498.997 517.938 498.413 517.268 498.585 515.706C498.773 514.04 499.22 512.975 499.924 512.408C500.508 511.962 501.298 511.825 502.398 511.962C503.669 512.134 504.682 512.443 505.335 512.649C505.799 512.786 506.091 512.889 506.314 512.889C506.932 512.889 507.585 512.117 507.826 511.395C508.1 510.537 507.86 509.747 507.139 509.215C505.524 508.013 501.487 507.274 499.272 508.133C497.537 508.82 495.853 511.533 495.373 513.645C494.874 515.791 494.428 519.707 496.97 521.681C497.812 522.334 499.976 523.519 502.673 523.759C503.205 523.811 503.72 523.828 504.184 523.828C505.799 523.828 506.967 523.57 507.482 523.278C508.032 522.952 508.307 522.025 508.375 521.321C508.427 520.874 508.427 520.05 507.98 519.621C507.585 519.26 506.778 519.26 505.575 519.312Z" fill="#E9D83B"/>
<path d="M475.688 231.7H419.194V253.714H434.327V341.119H460.401V253.714H475.671V231.7H475.688ZM388.122 300.199L390.956 249.267H391.368L394.615 300.199H388.122ZM397.724 341.136H424.347L410.297 231.7H373.007L358.956 341.136H385.442L386.525 321.681H396.384L397.741 341.136H397.724ZM328.811 341.136H354.885V231.7H328.811V341.136ZM290.834 343.3C311.652 343.3 321.374 333.169 321.374 309.248V231.7H295.3V314.932C295.3 319.654 293.943 321.423 291.109 321.423C288.275 321.423 286.78 319.809 286.78 315.207V231.717H260.569V309.815C260.569 334.405 269.758 343.317 290.834 343.317M222.866 321.56C219.757 321.56 218.005 319.809 218.005 314.812V258.334C218.005 253.337 219.62 251.31 222.729 251.31C225.838 251.31 227.864 253.062 227.864 258.059V314.537C227.864 319.534 226.25 321.56 222.866 321.56ZM240.163 357.638L259.212 344.124L249.215 329.528C252.599 324.119 254.076 317.37 254.076 307.909V264.412C254.076 239.015 243.392 229.554 223.261 229.554C203.13 229.554 191.639 240.097 191.639 264.945V308.441C191.639 333.564 202.185 343.3 222.316 343.3C224.893 343.3 228.122 342.493 230.012 341.943L240.146 357.621L240.163 357.638ZM152.459 315.619V296.833L154.624 297.915C158.952 299.804 160.429 302.379 160.429 306.827V317.096C160.429 320.341 159.072 321.698 156.788 321.698C153.954 321.698 152.459 320.084 152.459 315.619ZM156.788 343.317C174.892 343.317 186.795 334.937 186.795 314.812V304.148C186.795 291.99 180.303 285.105 169.224 279.97L166.785 278.751L186.658 273.754L185.438 256.324C183.824 238.088 175.442 229.571 157.063 229.571C138.684 229.571 127.605 237.676 127.605 256.857V267.126C127.605 279.558 134.355 288.745 145.709 293.605L146.928 294.137L127.193 298.189L127.467 316.151C127.88 334.937 137.876 343.3 156.788 343.3M159.485 274.939C155.431 273.05 153.816 270.337 153.816 265.752V255.346C153.816 252.375 154.898 250.881 157.2 250.881C159.897 250.881 160.841 252.77 160.979 256.822L161.254 275.866L159.502 274.922L159.485 274.939ZM90.0224 300.199L92.8566 249.267H93.2688L96.5152 300.199H90.0224ZM99.6242 341.136H126.248L112.197 231.7H74.8899L60.8394 341.136H87.3257L88.4079 321.681H98.2672L99.6242 341.136ZM26.1084 294.927H27.723C31.7767 294.927 33.3913 296.283 33.3913 300.061V314.915C33.3913 318.555 32.0343 320.049 29.0628 320.049H26.0912V294.927H26.1084ZM26.1084 252.77H28.8051C32.0515 252.77 32.8588 254.384 32.8588 258.042V269.392C32.8588 273.307 31.7767 275.059 27.9978 275.059H26.1084V252.77ZM0 231.7V341.136H29.5952C48.3864 341.136 59.8604 333.306 59.8604 314.108V303.976C59.8604 292.214 55.5319 284.521 41.7563 283.301V283.027C54.7246 280.863 58.9157 273.307 58.9157 261.012V254.934C58.9157 239.256 50.2587 231.7 32.8244 231.7H0Z" fill="black"/>
<path d="M336.627 203.263V115.859H310.553V225.295H357.977V203.281H336.627V203.263ZM283.517 203.676V179.892H302.17V158.273H283.517V137.461H304.335V115.841H257.443V225.278H304.472V203.658H283.534L283.517 203.676ZM224.464 115.859V158.153H214.999V115.859H188.908V225.295H214.999V180.442H224.464V225.295H250.538V115.859H224.464ZM152.975 227.459C171.628 227.459 181.488 218.272 182.432 196.377L183.102 177.334L158.368 171.787L157.818 198.816C157.681 203.676 156.324 205.702 153.627 205.702C150.931 205.702 149.436 204.088 149.436 199.348V142.338C149.436 137.478 150.518 135.452 153.352 135.452C156.187 135.452 157.406 137.341 157.681 142.475L158.213 165.709L182.81 161.519L182.003 143.952C180.783 123.139 172.006 113.695 153.352 113.695C133.359 113.695 123.087 123.964 123.087 149.086V192.582C123.087 218.254 133.084 227.441 152.957 227.441M90.2629 225.278H116.337V115.841H90.2629V225.278ZM83.1003 115.841H47.6994L41.8937 189.887H41.4814L35.6758 115.841H0V225.278H23.3773V137.461H23.6521L31.7595 225.278H51.2206L59.0531 137.461H59.4653V225.278H83.1175V115.841H83.1003Z" fill="black"/>
<path d="M234.735 75.5219H262.853V53.6277H234.735V75.5219ZM203.92 0V59.1743H203.646L190.402 0H165.668V109.436H190.128V50.5196H190.402L203.646 109.419H228.38V0H203.92ZM125.544 68.4986L128.378 17.5668H128.79L132.036 68.4986H125.544ZM135.145 109.436H161.769L147.701 0H110.394L96.3434 109.436H122.83L123.912 89.9806H133.771L135.128 109.436H135.145ZM72.7085 87.8169V64.0339H91.3622V42.4145H72.7085V21.6022H93.5265V0H46.6344V109.436H93.6639V87.8169H72.7256H72.7085ZM14.6001 111.463C33.6489 111.463 39.4718 99.4423 39.4718 79.0421V0H13.2431V80.3815C13.2431 86.7351 10.6838 88.7614 5.9431 88.7614C3.91626 88.7614 2.02684 88.3493 0 87.8169V108.887C5.1358 110.776 9.72194 111.445 14.6001 111.445" fill="black"/>
<path d="M469.47 284.641H484.191V267.864H469.47V284.641ZM469.47 323.106H484.191V306.329H469.47V323.106Z" fill="black"/>
</g>
<defs>
<clipPath id="clip0_74_108">
<rect width="521" height="575" fill="white"/>
</clipPath>
</defs>
</svg>
